<?xml version="1.0" standalone="no"?>
<svg xmlns:xlink="http://www.w3.org/1999/xlink" id="wave" style="transform:rotate(180deg); transition: 0.3s" viewBox="0 0 1440 370" version="1.1" xmlns="http://www.w3.org/2000/svg"><defs><linearGradient id="sw-gradient-0" x1="0" x2="0" y1="1" y2="0"><stop stop-color="rgba(27.609, 84.731, 123.316, 1)" offset="0%"/><stop stop-color="rgba(168.1, 194.845, 203.004, 1)" offset="100%"/></linearGradient></defs><path style="transform:translate(0, 0px); opacity:1" fill="url(#sw-gradient-0)" d="M0,74L34.3,74C68.6,74,137,74,206,92.5C274.3,111,343,148,411,135.7C480,123,549,62,617,80.2C685.7,99,754,197,823,215.8C891.4,234,960,173,1029,123.3C1097.1,74,1166,37,1234,43.2C1302.9,49,1371,99,1440,104.8C1508.6,111,1577,74,1646,86.3C1714.3,99,1783,160,1851,178.8C1920,197,1989,173,2057,166.5C2125.7,160,2194,173,2263,203.5C2331.4,234,2400,284,2469,259C2537.1,234,2606,136,2674,104.8C2742.9,74,2811,111,2880,129.5C2948.6,148,3017,148,3086,123.3C3154.3,99,3223,49,3291,37C3360,25,3429,49,3497,61.7C3565.7,74,3634,74,3703,104.8C3771.4,136,3840,197,3909,222C3977.1,247,4046,234,4114,215.8C4182.9,197,4251,173,4320,178.8C4388.6,185,4457,222,4526,234.3C4594.3,247,4663,234,4731,203.5C4800,173,4869,123,4903,98.7L4937.1,74L4937.1,370L4902.9,370C4868.6,370,4800,370,4731,370C4662.9,370,4594,370,4526,370C4457.1,370,4389,370,4320,370C4251.4,370,4183,370,4114,370C4045.7,370,3977,370,3909,370C3840,370,3771,370,3703,370C3634.3,370,3566,370,3497,370C3428.6,370,3360,370,3291,370C3222.9,370,3154,370,3086,370C3017.1,370,2949,370,2880,370C2811.4,370,2743,370,2674,370C2605.7,370,2537,370,2469,370C2400,370,2331,370,2263,370C2194.3,370,2126,370,2057,370C1988.6,370,1920,370,1851,370C1782.9,370,1714,370,1646,370C1577.1,370,1509,370,1440,370C1371.4,370,1303,370,1234,370C1165.7,370,1097,370,1029,370C960,370,891,370,823,370C754.3,370,686,370,617,370C548.6,370,480,370,411,370C342.9,370,274,370,206,370C137.1,370,69,370,34,370L0,370Z"/><defs><linearGradient id="sw-gradient-1" x1="0" x2="0" y1="1" y2="0"><stop stop-color="rgba(18, 18, 20, 1)" offset="0%"/><stop stop-color="rgba(120.967, 141.061, 146.084, 1)" offset="100%"/></linearGradient></defs><path style="transform:translate(0, 50px); opacity:0.9" fill="url(#sw-gradient-1)" d="M0,259L34.3,228.2C68.6,197,137,136,206,148C274.3,160,343,247,411,252.8C480,259,549,185,617,166.5C685.7,148,754,185,823,191.2C891.4,197,960,173,1029,160.3C1097.1,148,1166,148,1234,154.2C1302.9,160,1371,173,1440,178.8C1508.6,185,1577,185,1646,172.7C1714.3,160,1783,136,1851,154.2C1920,173,1989,234,2057,240.5C2125.7,247,2194,197,2263,148C2331.4,99,2400,49,2469,55.5C2537.1,62,2606,123,2674,178.8C2742.9,234,2811,284,2880,271.3C2948.6,259,3017,185,3086,154.2C3154.3,123,3223,136,3291,148C3360,160,3429,173,3497,185C3565.7,197,3634,210,3703,222C3771.4,234,3840,247,3909,240.5C3977.1,234,4046,210,4114,172.7C4182.9,136,4251,86,4320,98.7C4388.6,111,4457,185,4526,185C4594.3,185,4663,111,4731,74C4800,37,4869,37,4903,37L4937.1,37L4937.1,370L4902.9,370C4868.6,370,4800,370,4731,370C4662.9,370,4594,370,4526,370C4457.1,370,4389,370,4320,370C4251.4,370,4183,370,4114,370C4045.7,370,3977,370,3909,370C3840,370,3771,370,3703,370C3634.3,370,3566,370,3497,370C3428.6,370,3360,370,3291,370C3222.9,370,3154,370,3086,370C3017.1,370,2949,370,2880,370C2811.4,370,2743,370,2674,370C2605.7,370,2537,370,2469,370C2400,370,2331,370,2263,370C2194.3,370,2126,370,2057,370C1988.6,370,1920,370,1851,370C1782.9,370,1714,370,1646,370C1577.1,370,1509,370,1440,370C1371.4,370,1303,370,1234,370C1165.7,370,1097,370,1029,370C960,370,891,370,823,370C754.3,370,686,370,617,370C548.6,370,480,370,411,370C342.9,370,274,370,206,370C137.1,370,69,370,34,370L0,370Z"/></svg>