<?xml version="1.0" encoding="utf-8"?>
<!-- Generator: Adobe Illustrator 24.1.0, SVG Export Plug-In . SVG Version: 6.00 Build 0)  -->
<svg version="1.1" id="Layer_1" xmlns="http://www.w3.org/2000/svg" xmlns:xlink="http://www.w3.org/1999/xlink" x="0px" y="0px"
	 viewBox="0 0 60 60" style="enable-background:new 0 0 60 60;" xml:space="preserve">
<style type="text/css">
	.st0{fill:#214674;}
</style>
<path id="path2" class="st0" d="M9.8,32.6c0-0.8-0.5-1.6-1.9-1.6v-1.9c1.4-0.1,1.9-0.9,1.9-1.6c0-1.3-0.2-2.2-0.2-3.8
	c0-2.4,0.9-3.1,2.8-3.1h5.2v1.7h-4.2c-0.9,0-1.2,0.3-1.2,1.5c0,1.2,0.1,2.3,0.1,3.6c0,1.7-0.5,2.3-1.6,2.6V30
	c1.1,0.3,1.6,0.9,1.6,2.6c0,1.3-0.1,2.4-0.1,3.6s0.3,1.6,1.2,1.6h0.4v1.7h-1.4c-1.9,0-2.8-0.8-2.8-3.1C9.5,34.7,9.8,33.9,9.8,32.6z
	 M14.3,20.7h3.2v12.1c0,0.7,0.3,0.9,0.6,0.9c0.1,0,0.2,0,0.4-0.1l0.4,2.4c-0.4,0.2-0.9,0.3-1.6,0.3c-2.2,0-3-1.5-3-3.7L14.3,20.7z
	 M23.5,24.9c3.1,0,4.6,2.3,4.6,5.2c0,0.6-0.1,1.1-0.1,1.3h-6.6c0.3,1.7,1.4,2.4,2.9,2.4c0.8,0,1.6-0.2,2.4-0.7l1.1,1.9
	c-1.1,0.8-2.6,1.2-3.9,1.2c-3.1,0-5.5-2.1-5.5-5.7C18.2,27.1,20.8,24.9,23.5,24.9z M25.3,29.5c0-1.2-0.5-2.2-1.8-2.2
	c-1,0-1.9,0.7-2.1,2.2H25.3z M29.9,32.8c1,0.8,1.9,1.1,2.8,1.1c1,0,1.4-0.4,1.4-0.9c0-0.7-1.1-1.1-2.2-1.5c-1.3-0.5-2.9-1.4-2.9-3.2
	c0-2,1.7-3.4,4.1-3.4c1.7,0,2.9,0.7,3.8,1.4l-1.5,1.9c-0.8-0.6-1.5-0.9-2.3-0.9c-0.8,0-1.2,0.3-1.2,0.9c0,0.7,1,1,2.2,1.4
	c1.4,0.5,3,1.3,3,3.3s-1.6,3.5-4.5,3.5c-1.4,0-3.1-0.6-4.1-1.5L29.9,32.8z M38.7,32.8c1,0.8,1.9,1.1,2.8,1.1c1,0,1.4-0.4,1.4-0.9
	c0-0.7-1.1-1.1-2.2-1.5c-1.3-0.5-2.9-1.4-2.9-3.2c0-2,1.7-3.4,4.1-3.4c1.7,0,2.9,0.7,3.8,1.4l-1.5,1.9c-0.8-0.6-1.5-0.9-2.3-0.9
	s-1.2,0.3-1.2,0.9c0,0.7,1,1,2.1,1.4c1.4,0.5,3,1.3,3,3.3s-1.6,3.5-4.5,3.5c-1.4,0-3.1-0.6-4.1-1.5L38.7,32.8z M46.7,37.7
	c0.9,0,1.2-0.3,1.2-1.6c0-1.2-0.1-2.3-0.1-3.6c0-1.7,0.5-2.3,1.6-2.6v-0.1c-1.1-0.3-1.6-0.9-1.6-2.6c0-1.3,0.1-2.4,0.1-3.6
	c0-1.2-0.2-1.5-1.2-1.5h-0.4v-1.7h1.4c1.9,0,2.8,0.8,2.8,3.1c0,1.5-0.2,2.4-0.2,3.8c0,0.8,0.5,1.6,1.9,1.6v1.9
	c-1.4,0.1-1.9,0.9-1.9,1.6c0,1.4,0.2,2.2,0.2,3.8c0,2.4-0.9,3.1-2.8,3.1h-1.4v-1.7L46.7,37.7z"/>
</svg>
