<?xml version="1.0" encoding="utf-8"?>
<!-- Generator: Adobe Illustrator 24.1.0, SVG Export Plug-In . SVG Version: 6.00 Build 0)  -->
<svg version="1.1" id="Layer_1" xmlns="http://www.w3.org/2000/svg" xmlns:xlink="http://www.w3.org/1999/xlink" x="0px" y="0px"
	 viewBox="0 0 60 60" style="enable-background:new 0 0 60 60;" xml:space="preserve">
<style type="text/css">
	.st0{fill:url(#SVGID_1_);}
	.st1{fill:url(#SVGID_2_);}
	.st2{fill:url(#SVGID_3_);}
</style>
<g transform="matrix(.569 0 0 .569 199.451 -82.735)">
	
		<linearGradient id="SVGID_1_" gradientUnits="userSpaceOnUse" x1="-21533.8945" y1="-18979.7676" x2="-21506.7969" y2="-18995.7793" gradientTransform="matrix(0.1187 0 0 0.1187 2235.1582 2483.0491)">
		<stop  offset="0" style="stop-color:#909CA9"/>
		<stop  offset="1" style="stop-color:#EDEDEE"/>
	</linearGradient>
	<path class="st0" d="M-288.4,195.5l-15.6,5.1l-13.6,6l-3.8,1c-1,0.9-2,1.9-3.1,2.8c-1.2,1-2.3,2-3.2,2.7c-1,0.8-2.4,2.2-3.1,3.1
		c-1.1,1.3-1.9,2.8-2.3,3.9c-0.7,2-0.3,4,0.9,5.9c1.6,2.4,4.8,4.8,8.5,6.4c1.9,0.8,5.1,1.9,7.5,2.5c4,1,11.8,2.1,16,2.3
		c0.9,0,2,0,2.1,0c0.1-0.1,0.8-1.3,1.5-2.9c2.6-5.4,4.5-10.4,5.5-14.7c0.6-2.6,1.1-6.1,1.4-10.2c0.1-1.1,0.1-5,0-6.3
		c-0.1-2.1-0.3-3.9-0.6-5.5c0-0.2-0.1-0.5,0-0.5c0,0,0.2-0.1,2.1-0.6L-288.4,195.5L-288.4,195.5L-288.4,195.5L-288.4,195.5z
		 M-292,197.6c0.1,0,0.5,3.6,0.6,5.9c0,0.5,0,0.8,0,0.8c-0.1,0-2-1.1-3.4-2c-1.2-0.7-3.4-2.2-3.8-2.5c-0.1-0.1-0.1-0.1,0.9-0.4
		C-296,198.9-292.1,197.6-292,197.6z M-300,200.3c0.1,0,0.4,0.2,1,0.6c2.4,1.5,5.7,3.4,7.2,4c0.4,0.2,0.5,0.1-0.5,0.8
		c-2.2,1.5-4.8,2.9-8.1,4.4c-0.6,0.3-1.1,0.5-1.1,0.5c0,0,0-0.3,0.1-0.6c0.8-2.9,1.2-5.9,1.3-8.3
		C-300.1,200.3-300.1,200.3-300,200.3C-300,200.3-300,200.3-300,200.3L-300,200.3z M-301.6,200.9c0.1,0.1,0,2.7-0.1,3.4
		c-0.2,1.7-0.5,3.3-1.1,5.1c-0.1,0.4-0.2,0.8-0.3,0.8c0,0.1-1.7-1.5-2.2-2.1c-0.9-1.1-1.6-2.1-2.2-3.2c-0.3-0.5-0.7-1.6-0.7-1.6
		C-307.9,203.2-301.7,200.8-301.6,200.9L-301.6,200.9z M-309.3,203.9C-309.3,203.9-309.3,203.9-309.3,203.9c0.1,0,0.1,0.2,0.2,0.4
		c0.4,1,1.2,2.5,2,3.5c0.8,1.1,1.9,2.2,2.7,2.9c0.3,0.2,0.5,0.5,0.6,0.5c0.1,0.1,0.1,0.1-1.8,0.8c-2.2,0.9-4.7,1.7-7.5,2.6
		c-0.7,0.2-1.3,0.4-2,0.7c-0.1,0-0.1,0,0.2-0.5c1.4-2.2,3.5-6.4,4.7-9.4c0.2-0.5,0.4-1,0.4-1.2c0-0.2,0.1-0.2,0.3-0.3
		C-309.5,203.9-309.4,203.9-309.3,203.9L-309.3,203.9z M-311.7,204.9c0,0-0.6,1.3-1.2,2.4c-1.1,2.2-2.4,4.4-4.1,7.1
		c-0.3,0.5-0.6,0.9-0.6,0.9c-0.1,0.1-0.1,0.1-0.3-0.3c-0.4-0.8-0.7-1.8-0.9-2.7c-0.2-0.9-0.1-2.5,0.1-3.5c0.2-0.7,0.1-0.7,0.5-0.9
		C-316.6,207.1-311.8,204.9-311.7,204.9L-311.7,204.9z M-291.3,205.7v0.5c0,2.6-0.3,6.3-0.7,8.9c-0.1,0.5-0.1,0.8-0.1,0.9
		c0,0-0.3-0.1-0.7-0.2c-1.8-0.6-3.7-1.4-5.4-2.3c-1.1-0.6-2.8-1.7-2.8-1.7c0,0,0.5-0.3,1.1-0.6c2.3-1.2,4.5-2.5,6.5-3.8
		c0.7-0.5,1.8-1.3,2-1.5L-291.3,205.7L-291.3,205.7z M-320.6,209.2c0,0,0,0.1,0,0.5c0,0.3-0.1,0.9-0.1,1.3c-0.1,1.7,0.2,3,1,4.8
		c0.2,0.5,0.4,0.9,0.4,0.9c-0.1,0.1-7.9,2.4-10.4,3c-0.7,0.2-1.4,0.4-1.4,0.4c-0.1,0-0.1,0-0.1-0.2c0.3-1.7,1.6-4,3.4-5.9
		c1.2-1.3,2.2-2,3.9-3C-322.7,210.3-320.8,209.3-320.6,209.2C-320.7,209.2-320.6,209.2-320.6,209.2L-320.6,209.2z M-302.2,212.5
		c0,0,0.3,0.1,0.6,0.3c2.5,1.5,6.1,2.8,9.1,3.5l0.3,0.1l-0.4,0.2c-1.6,0.9-6.7,3-12,5c-0.8,0.3-1.5,0.6-1.7,0.6
		c-0.1,0.1-0.3,0.1-0.3,0.1c0,0,0.2-0.4,0.5-0.9c1.5-2.8,3-6.1,3.7-8.5C-302.3,212.7-302.2,212.5-302.2,212.5L-302.2,212.5z
		 M-304.1,213.1c0,0-0.1,0.3-0.2,0.5c-1,2.5-2.4,5.2-4.1,8.3c-0.4,0.8-0.8,1.4-0.8,1.4c0,0-0.4-0.2-0.8-0.5
		c-2.5-1.5-4.7-3.4-6.2-5.3l-0.2-0.3l1.1-0.3c3.9-1.1,7.1-2.2,10.4-3.6C-304.5,213.3-304.1,213.1-304.1,213.1z M-292.4,217.2
		C-292.4,217.2-292.4,217.2-292.4,217.2c0,0.3-0.6,2.7-1.1,4.5c-0.4,1.5-0.8,2.6-1.4,4.7c-0.3,0.9-0.5,1.6-0.5,1.6c0,0-0.1,0-0.2,0
		c-3.5-0.6-6.7-1.5-9.6-2.7c-0.8-0.3-2-0.9-2.1-0.9c0,0,0.7-0.4,1.6-0.7c5.4-2.4,11-5,12.9-6.2
		C-292.6,217.3-292.4,217.2-292.4,217.2L-292.4,217.2z M-319.4,218.1c0,0-1.5,2.2-3.6,5.1c-0.7,1-1.6,2.2-1.9,2.7
		c-0.3,0.4-0.8,1.2-1.1,1.6l-0.5,0.8l-0.5-0.4c-0.6-0.5-1.7-1.6-2.2-2.2c-1-1.3-1.7-2.6-2-3.8c-0.1-0.6-0.1-0.9,0-0.9
		c0.2,0,3.3-0.8,6.3-1.5c1.6-0.4,3.5-0.8,4.2-1C-319.9,218.3-319.4,218.1-319.4,218.1L-319.4,218.1z M-317.8,218.7l0.4,0.4
		c1.7,1.9,3.4,3.3,5.5,4.5c0.4,0.2,0.7,0.4,0.6,0.4c-0.1,0.1-7.3,2.6-10.6,3.8c-1.9,0.7-3.4,1.2-3.4,1.2c0,0-0.1-0.1-0.2-0.2
		l-0.2-0.2l0.3-0.5c1.1-1.6,2.5-3.4,5.5-7L-317.8,218.7L-317.8,218.7z M-308.4,225.5c0,0,0.5,0.2,1.2,0.4c1.5,0.6,2.8,0.9,4.4,1.4
		c2,0.5,4.9,1,6.6,1.1c0.3,0,0.4,0,0.4,0.1c-0.1,0-1.8,0.6-3.1,1c-2,0.6-8.2,2.5-13.3,3.9c-0.9,0.3-1.7,0.5-1.8,0.5
		c-0.1,0-0.5-0.1-0.5-0.1c0,0,0.3-0.4,0.6-0.8c1.7-2,3.4-4.3,4.8-6.5C-308.7,226-308.4,225.5-308.4,225.5L-308.4,225.5z
		 M-310.5,225.5c0,0-0.8,1.4-2.3,3.7c-0.6,1-1.3,2.1-1.6,2.5c-0.2,0.4-0.6,1-0.8,1.3l-0.3,0.6l-0.2,0c-0.4-0.1-3.4-1.2-4.2-1.5
		c-1-0.4-2-0.9-2.8-1.3c-0.9-0.5-2.1-1.3-2-1.3c0,0,1.6-0.4,3.6-1c5.2-1.4,8-2.2,9.9-2.8C-310.8,225.6-310.5,225.5-310.5,225.5
		L-310.5,225.5z M-295.8,229L-295.8,229c0.1,0.1-1.9,5.4-2.6,7.1c-0.2,0.4-0.2,0.5-0.3,0.5c-0.2,0-3-0.4-4.7-0.6
		c-2.9-0.4-7.9-1.3-9.1-1.6l-0.3-0.1l1.8-0.4c3.8-0.9,5.6-1.3,7.4-1.9c2.3-0.7,4.6-1.6,7-2.7C-296.2,229.1-295.9,229-295.8,229
		L-295.8,229z"/>
	
		<linearGradient id="SVGID_2_" gradientUnits="userSpaceOnUse" x1="-21532.8262" y1="-19510.1191" x2="-21511.0234" y2="-19510.1191" gradientTransform="matrix(0.1187 0 0 0.1187 2235.1582 2483.0491)">
		<stop  offset="0" style="stop-color:#939FAB"/>
		<stop  offset="1" style="stop-color:#DCDEE1"/>
	</linearGradient>
	<path class="st1" d="M-304.6,159.1c-0.3,0-4.5,1.5-7.2,2.6c-3.7,1.5-6.5,2.9-8.2,4.1c-0.6,0.5-1.5,1.3-1.6,1.6
		c0,0.1-0.1,0.3-0.1,0.4l1.6,1.5l3.8,1.2l9,1.6l10.3,1.8l0.1-0.9c0,0-0.1,0-0.1,0l-1.3-0.2l-0.3-0.5c-1.4-2.5-2.9-5.5-3.8-7.6
		c-0.7-1.6-1.4-3.4-1.7-4.8C-304.4,159.1-304.4,159.1-304.6,159.1L-304.6,159.1L-304.6,159.1L-304.6,159.1z M-304.7,159.7
		L-304.7,159.7c0,0,0.1,0.3,0.1,0.7c0.2,1.7,0.6,3.3,1.1,5c0.4,1.3,0.4,1.2-0.1,1.1c-1.2-0.3-6.6-1.3-10.5-1.8
		c-0.6-0.1-1.2-0.2-1.2-0.2c0,0,2.8-1.5,4.1-2.1C-309.5,161.6-305.1,159.7-304.7,159.7L-304.7,159.7z M-316.1,165l0.5,0.2
		c2.5,0.9,8.8,2.1,12.3,2.3c0.4,0,0.7,0.1,0.7,0.1c0,0-0.3,0.2-0.7,0.4c-1.7,0.8-3.5,1.9-4.8,2.7c-0.4,0.2-0.7,0.4-0.8,0.4
		c0,0-0.3,0-0.6-0.1l-0.5-0.1l-1.2-1.2c-2.1-2-3.7-3.6-4.3-4.2L-316.1,165z M-316.6,165.4l1.7,2.1c0.9,1.1,1.8,2.3,2,2.5
		c0.2,0.2,0.4,0.4,0.4,0.5c0,0-2.4-0.4-3.7-0.7c-1.3-0.3-1.8-0.4-2.6-0.7l-0.7-0.2v-0.2c0-0.8,1-2,2.7-3.2L-316.6,165.4
		L-316.6,165.4z M-302.5,168.2c0,0,0.1,0.1,0.2,0.4c0.4,0.9,1.7,3.3,2,3.7c0.1,0.2,0.3,0.2-1.4-0.1c-4-0.7-5.3-0.9-5.3-0.9
		c0,0,0.1-0.1,0.3-0.2c1.2-0.7,2.5-1.6,3.6-2.5C-302.8,168.5-302.5,168.2-302.5,168.2C-302.5,168.2-302.5,168.2-302.5,168.2
		L-302.5,168.2z"/>
	
		<radialGradient id="SVGID_3_" cx="-1958.8719" cy="-10658.377" r="28.948" gradientTransform="matrix(-0.114 -1.712736e-02 3.463960e-02 -0.228 -152.7758 -2276.8064)" gradientUnits="userSpaceOnUse">
		<stop  offset="0" style="stop-color:#EE352C"/>
		<stop  offset="1" style="stop-color:#A91D22"/>
	</radialGradient>
	<path class="st2" d="M-321.5,167.2c0,0-0.3,0.4,0,1c0.2,0.4,0.6,0.8,1.1,1.3c0,0,5.3,5.1,5.9,5.9c2.9,3.4,4.2,6.7,4.3,11.2
		c0.1,2.9-0.5,5.5-1.9,8.5c-2.5,5.4-7.6,11.3-15.6,17.9l1.2-0.4c0.8-0.6,1.8-1.2,4.2-2.5c5.6-3,11.8-5.9,19.5-8.7
		c11.1-4.2,29.3-9,39.6-10.6l1.1-0.2l-0.2-0.3c-0.9-1.5-1.6-2.4-2.4-3.3c-2.3-2.8-5-5.1-8.4-7c-4.6-2.6-10.6-4.6-18.2-6.1
		c-1.4-0.3-4.6-0.8-7.1-1.2c-5.4-0.8-8.9-1.4-12.8-2.1c-1.4-0.2-3.5-0.6-4.8-0.9c-0.7-0.2-2.1-0.5-3.1-0.8
		C-320,168.6-321.2,168.2-321.5,167.2L-321.5,167.2z M-318.4,170.2c0,0,0.2,0.1,0.4,0.1c0.4,0.2,1,0.3,1.7,0.5
		c0.5,0.1,1,0.3,1.6,0.4c0.7,0.2,1.3,0.3,1.3,0.3c0.1,0.1,1.3,3.9,1.7,5.4c0.2,0.6,0.3,1,0.3,1c0,0-0.1-0.2-0.3-0.5
		c-1.4-2.4-3.6-4.9-6.1-6.9C-318.2,170.4-318.4,170.2-318.4,170.2L-318.4,170.2z M-312.6,171.8c0.1,0,0.3,0,0.6,0.1
		c2,0.4,5.6,1.1,7.9,1.5c0.4,0.1,0.7,0.1,0.7,0.2c0,0-0.1,0.1-0.3,0.2c-0.4,0.2-2,1.1-2.5,1.5c-1.3,0.9-2.5,1.8-3.3,2.7
		c-0.3,0.3-0.6,0.6-0.6,0.6s-0.1-0.2-0.1-0.4c-0.4-1.6-1.3-4.1-2.1-5.8C-312.5,172.1-312.6,171.8-312.6,171.8
		C-312.6,171.8-312.6,171.8-312.6,171.8L-312.6,171.8z M-302.4,173.7c0.1,0,0.2,0.4,0.4,1.3c0.4,1.7,0.6,3.6,0.6,5.4
		c0,0.5,0,1-0.1,1l0,0.1l-0.6-0.2c-1.3-0.4-3.3-1-5.1-1.5c-1-0.3-1.8-0.5-1.8-0.5c0-0.1,1.5-1.5,2.1-2.1
		C-305.7,176.2-302.5,173.7-302.4,173.7L-302.4,173.7z M-301.6,173.9c0,0,4.9,0.8,7.1,1.2c1.6,0.3,4,0.8,4.2,0.9
		c0.1,0-0.2,0.2-1,0.5c-3.1,1.4-5.4,2.7-7.7,4.2c-0.6,0.4-1.1,0.7-1.1,0.7c0,0,0-0.3,0-0.8c0-2.2-0.4-4.5-1.3-6.4
		C-301.5,174.1-301.6,173.9-301.6,173.9z M-289,176.3c0,0-0.1,1-0.3,1.6c-0.4,1.8-1.6,4.4-3,6.8c-0.2,0.4-0.5,0.8-0.5,0.8
		c0,0-0.3-0.2-0.7-0.4c-1.4-0.8-2.9-1.6-4.6-2.3c-0.5-0.2-0.9-0.4-0.9-0.4c-0.1-0.1,3.7-2.6,5.7-3.8
		C-291.6,177.7-289,176.3-289,176.3L-289,176.3z M-288.1,176.5c0.1,0,2.3,0.6,3.4,0.9c2.8,0.8,6,2,8,2.9l0.9,0.4l-0.6,0.1
		c-5.1,1.2-9.4,2.5-13.6,4.2c-0.3,0.1-0.7,0.3-0.7,0.3c0,0,0.1-0.3,0.2-0.6c1.3-2.7,2.1-5.5,2.3-7.9
		C-288.2,176.7-288.1,176.5-288.1,176.5L-288.1,176.5z M-309.5,181.4c0,0,1.7,0.4,2.6,0.6c1.3,0.4,4.2,1.3,4.2,1.4
		c0,0-0.3,0.3-0.7,0.6c-1.5,1.3-3,2.6-4.8,4.4c-0.5,0.5-1,0.9-1,0.9c0,0,0-0.1,0-0.2c0.3-2,0.2-4.5-0.2-7.1
		C-309.5,181.7-309.5,181.4-309.5,181.4z M-275,181.4c0,0-0.8,1.3-1.3,2c-0.7,1-1.7,2.4-4.1,5.3c-1.2,1.6-2.6,3.3-3.1,3.9
		c-0.5,0.6-0.9,1.1-0.9,1.1c0,0-0.2-0.2-0.3-0.5c-1.3-2-2.9-3.7-4.8-5.3c-0.4-0.3-0.7-0.6-0.9-0.7c-0.1-0.1-0.2-0.2-0.2-0.2
		c0,0,2-0.9,3.5-1.5c2.7-1.1,6.3-2.4,9-3.2C-276.5,181.9-275,181.4-275,181.4L-275,181.4z M-274.1,181.7c0,0,0.3,0.1,0.7,0.3
		c2.9,1.6,5.7,3.8,7.9,5.9c0.6,0.6,2.2,2.2,2.2,2.2c0,0-0.5,0-1.2,0.1c-5,0.4-11.3,1.4-17.5,2.9c-0.4,0.1-0.8,0.2-0.8,0.2
		c0,0,0.4-0.5,1-1c3.6-3.5,5.2-5.6,7.2-9.6C-274.3,182.2-274.1,181.7-274.1,181.7C-274.1,181.7-274.1,181.7-274.1,181.7
		L-274.1,181.7z M-300.4,184.4c0.2,0,1.7,0.8,2.9,1.3c1.1,0.5,2.7,1.4,2.7,1.5c0,0-0.6,0.3-1.3,0.7c-2.2,1.1-4.1,2.2-6.1,3.4
		c-0.6,0.3-1,0.6-1.1,0.6c0,0,0,0,0.3-0.6c1.1-1.9,1.9-4.3,2.4-6.5C-300.5,184.5-300.4,184.4-300.4,184.4L-300.4,184.4z
		 M-301.9,184.7c0,0-0.4,1.5-0.6,2.3c-0.5,1.5-1.3,3.4-2.1,4.8c-0.2,0.3-0.5,0.8-0.6,1.1l-0.3,0.5l-0.7-0.6
		c-0.8-0.7-1.4-1.2-2.2-1.6c-0.3-0.2-0.6-0.3-0.6-0.3c0-0.1,2-1.9,3.6-3.3C-304.3,186.5-302,184.6-301.9,184.7L-301.9,184.7z
		 M-292.5,188.5l0.6,0.4c1.3,0.9,2.9,2,4.1,3c0.7,0.6,2,1.7,2.2,2l0.1,0.2l-1,0.3c-5.4,1.5-9.6,2.8-14.5,4.6c-0.5,0.2-1,0.4-1,0.4
		c-0.1,0-0.1,0.1,1.1-1.1c3.1-2.9,5.9-6,7.9-9.1L-292.5,188.5L-292.5,188.5z M-295,189.1c0,0-1.6,2.3-2.6,3.6
		c-1.2,1.5-3.2,4.1-4.6,5.8c-0.6,0.7-1.1,1.3-1.1,1.3c0,0,0-0.2,0-0.4c0-1.4-0.4-3-1-4.3c-0.3-0.5-0.3-0.7-0.3-0.7
		c0.2-0.2,3.7-2.2,5.8-3.3C-297.3,190.3-295,189.1-295,189.1L-295,189.1z M-309.9,192.8c0,0,0.3,0.1,0.6,0.3c0.8,0.4,1.4,0.9,2,1.4
		c0,0-0.3,0.3-0.7,0.6c-1.1,0.8-2.8,2.1-3.8,2.9c-1,0.8-1.1,0.9-1,0.7c0.8-1.2,1.2-1.9,1.6-2.7c0.4-0.8,0.7-1.7,1-2.5
		C-310.1,193.1-310,192.8-309.9,192.8L-309.9,192.8z M-306,195.9c0.1,0,0.1,0.1,0.4,0.6c0.7,1,1.2,2.4,1.3,3.4l0,0.2l-1.6,0.6
		c-2.9,1.1-5.6,2.2-7.4,3.1c-0.5,0.2-1.4,0.7-2,0.9c-0.6,0.3-1.1,0.5-1.1,0.5c0,0,0.4-0.3,0.8-0.6c3.5-2.6,6.6-5.4,8.9-8.2
		C-306.2,196.2-306,195.9-306,195.9L-306,195.9L-306,195.9z M-307.8,196.4c0,0-1.3,1.6-2.2,2.5c-2.3,2.3-4.5,4.1-7.3,5.9
		c-0.4,0.2-0.7,0.4-0.7,0.4c-0.1,0,0-0.1,1.3-1.4c0.8-0.8,1.4-1.5,2-2.4c0.4-0.6,0.5-0.7,1.2-1.1
		C-311.8,199-307.8,196.3-307.8,196.4z"/>
</g>
</svg>
